<svg height="512" viewBox="0 0 61 60" width="512" xmlns="http://www.w3.org/2000/svg"><g id="Page-1" fill="none" fill-rule="evenodd"><g id="022---Send-Message" transform="translate(-1 -1)"><g id="Icons_copy_2" transform="translate(1 1)"><path id="Path" d="m27.652 1.093c-10.2076932.82878727-19.22137733 6.98012201-23.7139296 16.1834292-4.49255226 9.2033072-3.79775472 20.0937928 1.8279296 28.6515708.18170421.2696495.21909922.6114398.1.914l-4 9.992c-.14868731.3714617-.06164234.7957948.22128144 1.0787186.28292377.2829237.70725684.3699687 1.07871856.2212814l9.992-4c.3025602-.1190992.6443505-.0817042.914.1 10.6009583 6.9658339 24.4989319 6.2336095 34.3092335-1.8076057s13.2560746-21.525149 8.5064077-33.2871142c-4.7496669-11.7619651-16.5924313-19.07214663-29.2356412-18.0462801z" fill="#e8edfc"/><path id="Path" d="m28.512 1.049c15.2107579.80738603 27.2044913 13.2450085 27.4588037 28.4750562s-11.3174818 28.0611689-26.4928037 29.3759438c-.327.027-.647.023-.972.039 1.323371.0763154 2.6503826.0632858 3.972-.039 15.7114807-1.4146129 27.4104731-15.1285196 26.3315412-30.8666155s-14.5400013-27.72714374-30.2975412-26.9843845z" fill="#cad9fc"/><path id="Path" d="m23.955 37.179 4.194 10.721c.2993758.7653469 1.0364616 1.2696578 1.8582758 1.2714242.8218143.0017664 1.5610612-.4993713 1.8637242-1.2634242l11.275-28.457c.2973746-.7429234.1232847-1.5915896-.4425629-2.1574371-.5658475-.5658476-1.4145137-.7399375-2.1574371-.4425629l-28.446 11.278c-.7640529.302663-1.2651906 1.0419099-1.2634242 1.8637242.0017664.8218142.5060773 1.5589 1.2714242 1.8582758l10.718 4.194c.5177423.2044192.9268707.6153595 1.129 1.134z" fill="#c6d8fb"/><path id="Path" d="m40.549 16.854-.943.374c.6366922.5493816.8537054 1.4427526.54 2.223l-11.275 28.454c-.0855725.2136721-.2069819.4111738-.359.584.4598696.5217111 1.1577406.7670737 1.8429205.6479474.6851798-.1191262 1.2592838-.585636 1.5160795-1.2319474l11.275-28.454c.2946581-.7419059.1199156-1.58798-.4445522-2.1524478s-1.4105419-.7392103-2.1524478-.4445522z" fill="#a4c3fd"/></g><g id="Icons_copy" fill="#fff" transform="translate(1 2)"><path id="Path" d="m1.1 26.522c-.5602453 6.4855949 1.08371943 12.9705531 4.666 18.406.18170421.2696495.21909922.6114398.1.914l-4 9.992c-.14868731.3714617-.06164234.7957948.22128144 1.0787186.28292377.2829237.70725684.3699687 1.07871856.2212814l1.667-.666c-.05980042-.208862-.04782881-.4317452.034-.633l4-9.992c.11909922-.3025602.08170421-.6443505-.1-.914-5.62613517-8.5576742-6.32132149-19.4483265-1.82894534-28.6518987 4.49237614-9.20357215 13.50610114-15.35518615 23.71394534-16.1841013.26-.021.517-.028.776-.04-.961-.046-1.932-.053-2.915 0-.287.014-.572.021-.86.044-14.097647 1.1828286-25.30206303 12.3332332-26.553 26.425z"/></g><g id="Icons"><path id="Path" d="m2.947 20.392 1.869.712c-.89032251 2.4163462-1.46702813 4.9369128-1.716 7.5l-1.993-.165c.2644518-2.7503441.88289736-5.4550351 1.84-8.047z" fill="#fff"/><g fill="#428dff"><path id="Path" d="m2.76 25.569c-.55228475.0027614-1.00223858-.4427153-1.005-.995s.44271525-1.0022386.995-1.005h.01c.55228475 0 1 .4477153 1 1s-.44771525 1-1 1z"/><path id="Path" d="m1.106 28.438c-.59112699 6.7080438 1.11134708 13.4181679 4.829 19.033l-4 9.991c-.29737463.7429234-.12328467 1.5915896.44256287 2.1574371.56584755.5658476 1.4145137.7399375 2.15743713.4425629l9.983-3.994c4.8802885 3.2295444 10.6059069 4.9453513 16.458 4.932.8566667 0 1.7186667-.0356667 2.586-.107 16.511381-1.3776743 28.7796743-15.879619 27.402-32.391s-15.879619-28.77967431-32.391-27.402c-2.8120157.25433706-5.5772807.88427399-8.222 1.873-2.6366349 1.00797448-5.1151733 2.38868203-7.36 4.1-2.265222 1.68362542-4.27065777 3.6910828-5.952 5.958-1.69967178 2.2532474-3.07692664 4.7324408-4.092 7.366-.09773823.2526759-.08810544.5342983.02666952.7797053.11477497.245407.3247462.4333327.58133048.5202947.51265808.1755176 1.07183921-.0892176 1.261-.597.94831208-2.4577447 2.23397093-4.7715941 3.82-6.875 1.5709377-2.1173424 3.4458106-3.9912045 5.564-5.561 2.0947622-1.59775659 4.408017-2.88656517 6.869-3.827 2.4644858-.919705 5.0404498-1.50719967 7.66-1.747 12.2070693-.99146564 23.6419641 6.06561369 28.228826 17.421504 4.5868619 11.3558902 1.2611499 24.3750617-8.2100401 32.1398609-9.47119 7.7647991-22.8897387 8.4731338-33.1257859 1.7486351-.5444356-.3588401-1.2296191-.4297469-1.836-.19l-9.991 4 4-9.993c.23904851-.6058052.16816011-1.2900648-.19-1.834-3.46972541-5.2475369-5.05783327-11.5164209-4.505-17.783.04551184-.5503352-.36367307-1.0333883-.914-1.079-.26564381-.0254544-.53028742.0576327-.73371189.2303551-.20342448.1727225-.32832764.4203894-.34628811.6866449z"/><path id="Path" d="m43.331 52.778c.2916786.4687889.90809.612484 1.377.321 2.9773556-1.8457226 5.5495173-4.2760259 7.561-7.144.3175637-.4520451.208545-1.0759362-.2435-1.3935-.4520451-.3175637-1.0759363-.208545-1.3935.2435-1.8562547 2.649512-4.2308305 4.894813-6.98 6.6-.4663535.2915274-.6097638.9049303-.321 1.373z"/><path id="Path" d="m16.045 9.731c-2.8683352 2.011379-5.2989853 4.5835477-7.145 7.561-.18863623.3036758-.20093421.6849199-.03226141 1.0001216.1686728.3152016.49269097.5164741.85.528.35730901.0115259.69362521-.1684458.88226141-.4721216 1.705187-2.7491695 3.950488-5.1237453 6.6-6.98.4520451-.3175637.5610637-.9414549.2435-1.39349999-.3175637-.45204506-.9414549-.56106373-1.3935-.24350001z"/><path id="Shape" d="m41.181 16.925-28.454 11.275c-1.1461593.45379-1.8980632 1.5625249-1.8956344 2.7952457s.7586958 2.3384843 1.9066344 2.7877543l10.719 4.194c.2591425.1026632.4643368.3078575.567.567l4.194 10.719c.4453442 1.1510778 1.5537783 1.9088523 2.788 1.906h.006c1.2316339.004168 2.3391992-.74904 2.788-1.896l11.275-28.454c.4406371-1.1123494.1782004-2.3801707-.6678144-3.2261856-.8460149-.8460148-2.1138362-1.1084515-3.2261856-.6678144zm2.035 3.158-11.275 28.454c-.1456465.3856193-.5178545.6381605-.93.631-.4184335.0239776-.8005981-.2366825-.931-.635l-4.194-10.719c-.3061453-.7780619-.9219381-1.3938547-1.7-1.7l-10.719-4.194c-.382348-.1505115-.6337081-.5195941-.6337081-.9305s.2513601-.7799885.6337081-.9305l28.45-11.275c.3703606-.1544016.7975082-.0658757 1.076.223.2860792.2800272.3742253.7053418.223 1.076z" fill-rule="nonzero"/></g></g></g></g></svg>