<svg height="512" viewBox="0 0 61 60" width="512" xmlns="http://www.w3.org/2000/svg"><g id="Page-1" fill="none" fill-rule="evenodd"><g id="022---Send-Message" fill="rgb(0,0,0)" transform="translate(-1 -1)"><path id="Shape" d="m2.381 59.619c.56566788.5658177 1.41411414.7400698 2.157.443l9.983-3.994c4.8794371 3.2289781 10.6039281 4.9447599 16.455 4.932.8566667 0 1.7186667-.0356667 2.586-.107 16.511381-1.3776743 28.7796743-15.879619 27.402-32.391s-15.879619-28.77967431-32.391-27.402c-14.5708955 1.2522495-26.14617082 12.773161-27.467 27.338-.59112699 6.7080438 1.11134708 13.4181679 4.829 19.033l-4 9.991c-.29631075.7434727-.12086102 1.5920042.446 2.157zm5.411-11.407c.23904851-.6058052.16816011-1.2900648-.19-1.834-3.46756828-5.2465317-5.05456289-11.5134331-4.502-17.778 1.27386542-14.7863767 13.8635959-26.01026521 28.6986547-25.58517842 14.8350589.42508679 26.7614369 12.35146482 27.1865237 27.18652372.4250868 14.8350588-10.7988017 27.4247893-25.5851784 28.6986547-6.2630738.5531075-12.5286788-1.0332108-17.774-4.5-.5440224-.3599957-1.2297869-.4309627-1.836-.19l-9.991 4z" fill-rule="nonzero"/><path id="Path" d="m43.331 52.778c.2916786.4687889.90809.612484 1.377.321 2.9773556-1.8457226 5.5495173-4.2760259 7.561-7.144.3175637-.4520451.208545-1.0759362-.2435-1.3935-.4520451-.3175637-1.0759363-.208545-1.3935.2435-1.8562547 2.649512-4.2308305 4.894813-6.98 6.6-.4663535.2915274-.6097638.9049303-.321 1.373z"/><path id="Path" d="m17.2 11.368c.4520451-.3175637.5610637-.9414549.2435-1.39349999-.3175637-.45204506-.9414549-.56106373-1.3935-.24350001-2.8701405 2.0108606-5.3025246 4.5830643-7.15 7.561-.18863624.3036758-.20093423.68492-.03226143 1.0001216.1686728.3152017.49269097.5164741.85000001.528.35730902.0115259.69362522-.1684458.88226142-.4721216 1.705187-2.7491695 3.950488-5.1237453 6.6-6.98z"/><path id="Shape" d="m24.024 38.543 4.194 10.719c.4453442 1.1510778 1.5537783 1.9088523 2.788 1.906h.006c1.2313844.0043286 2.3388777-.7484332 2.788-1.895l11.275-28.454c.4406371-1.1123494.1782004-2.3801707-.6678144-3.2261856-.8460149-.8460148-2.1138362-1.1084515-3.2261856-.6678144l-28.454 11.275c-1.1461593.45379-1.8980632 1.5625249-1.8956344 2.7952457s.7586958 2.3384843 1.9066344 2.7877543l10.719 4.194c.2589451.1024348.4641083.3072361.567.566zm-11.192-7.553c-.0075869-.4125093.2450304-.7852298.631-.931l28.454-11.275c.3703606-.1544016.7975082-.0658757 1.076.223.2860792.2800272.3742253.7053418.223 1.076l-11.275 28.454c-.1456465.3856193-.5178545.6381605-.93.631-.4184335.0239776-.8005981-.2366825-.931-.635l-4.194-10.719c-.3061453-.7780619-.9219381-1.3938547-1.7-1.7l-10.719-4.194c-.3868101-.1448129-.6409474-.5170139-.635-.93z" fill-rule="nonzero"/></g></g></svg>