<svg height="512" viewBox="0 0 57 56" width="512" xmlns="http://www.w3.org/2000/svg"><g id="Page-1" fill="none" fill-rule="evenodd"><g id="022---Send-Message" fill="rgb(0,0,0)" transform="translate(-1)"><path id="Shape" d="m2.662 53.038c-.14868731.3714617-.06164234.7957948.22128144 1.0787186.28292377.2829237.70725684.3699687 1.07871856.2212814l7.824-3.13c.6062131-.2409627 1.2919776-.1699957 1.836.19 4.7361679 3.1361995 10.3213659 4.7419439 16 4.6 12.4599603-.1680515 23.2766394-8.6291165 26.44-20.682 2.7476625-10.2313569-.5112302-21.1374914-8.4217538-28.18404578-7.9105236-7.0465544-19.1193578-9.02801493-28.9662939-5.12056533-9.84693609 3.90744959-16.64737521 13.03532881-17.5739523 23.58861111-.55315095 6.264336 1.03313376 12.5312181 4.5 17.778.35816011.5439352.42904851 1.2281948.19 1.834zm45.97-11.233c.3175637-.452045.9414549-.5610637 1.3935-.2435.452045.3175638.5610637.9414549.2435 1.3935-2.011379 2.8683352-4.5835477 5.2989853-7.561 7.145-.3036758.1886362-.68492.2009342-1.0001216.0322614-.3152017-.1686728-.5164741-.4926909-.528-.85-.0115259-.357309.1684458-.6936252.4721216-.8822614 2.7486859-1.7037264 5.1232268-3.9472933 6.98-6.595zm-9.451-27.88c1.1123494-.4406371 2.3801707-.1782004 3.2261856.6678144.8460148.8460149 1.1084515 2.1138362.6678144 3.2261856l-11.275 28.454c-.4492543 1.1469084-1.5572509 1.8997422-2.789 1.895h-.006c-1.2342217.0028523-2.3426558-.7549222-2.788-1.906l-4.193-10.719c-.1026632-.2591425-.3078575-.4643368-.567-.567l-10.719-4.194c-1.14793856-.44927-1.90420561-1.5550335-1.9066344-2.7877543s.74947511-2.3414557 1.8956344-2.7952457zm-32.281.367c1.84572256-2.9773556 4.2760259-5.54951732 7.144-7.561.4520451-.31756371 1.0759362-.20854504 1.3935.24350002.3175637.45204506.208545 1.07593624-.2435 1.39349998-2.649512 1.8562547-4.894813 4.2308305-6.6 6.98-.29160635.469442-.90855796.6136063-1.37799999.322-.46944203-.2916064-.61360634-.908558-.32200001-1.378z" fill-rule="nonzero"/><path id="Path" d="m11.467 28.92 10.719 4.194c.7780619.3061453 1.3938547.9219381 1.7 1.7l4.194 10.719c.1304019.3983175.5125665.6589776.931.635.4121455.0071605.7843535-.2453807.93-.631l11.275-28.454c.1512253-.3706582.0630792-.7959728-.223-1.076-.2784918-.2888757-.7056394-.3774016-1.076-.223l-28.454 11.275c-.382348.1505115-.6337081.5195941-.6337081.9305s.2513601.7799885.6337081.9305z"/></g></g></svg>